<?xml version="1.0" encoding="UTF-8" standalone="no"?>
<!-- Created with Inkscape (http://www.inkscape.org/) -->

<svg
   width="100"
   height="100"
   viewBox="0 0 26.458333 26.458333"
   version="1.1"
   id="svg1"
   xml:space="preserve"
   inkscape:version="1.4.2 (ebf0e940d0, 2025-05-08)"
   sodipodi:docname="crest.svg"
   xmlns:inkscape="http://www.inkscape.org/namespaces/inkscape"
   xmlns:sodipodi="http://sodipodi.sourceforge.net/DTD/sodipodi-0.dtd"
   xmlns="http://www.w3.org/2000/svg"
   xmlns:svg="http://www.w3.org/2000/svg"><sodipodi:namedview
     id="namedview1"
     pagecolor="#ff0000"
     bordercolor="#eeeeee"
     borderopacity="1"
     inkscape:showpageshadow="0"
     inkscape:pageopacity="0"
     inkscape:pagecheckerboard="0"
     inkscape:deskcolor="#505050"
     inkscape:document-units="mm"
     inkscape:zoom="9.57"
     inkscape:cx="43.364681"
     inkscape:cy="49.895507"
     inkscape:window-width="2048"
     inkscape:window-height="1208"
     inkscape:window-x="0"
     inkscape:window-y="0"
     inkscape:window-maximized="1"
     inkscape:current-layer="layer1" /><defs
     id="defs1"><inkscape:path-effect
       effect="mirror_symmetry"
       start_point="13.213449,-0.19161031"
       end_point="13.213449,23.486124"
       center_point="13.213449,11.647257"
       id="path-effect10"
       is_visible="true"
       lpeversion="1.2"
       lpesatellites="#path11"
       mode="vertical"
       discard_orig_path="false"
       fuse_paths="false"
       oposite_fuse="false"
       split_items="true"
       split_open="false"
       link_styles="false" /></defs><g
     inkscape:label="Layer 1"
     inkscape:groupmode="layer"
     id="layer1"><path
       style="fill:#ffffff;fill-opacity:1;fill-rule:nonzero;stroke-width:0.264583"
       d="m 13.079609,9.8301374 c 1.396145,0 2.340082,-0.8954838 2.292212,-2.6418754 L 24.502,4.4667973 c -1.775805,3.1131049 -3.690516,6.0817467 -7.277819,7.3108937 -0.595449,1.201616 -0.871561,1.914892 -2.43295,2.377655 -0.707444,0.209672 -0.834229,1.385469 -0.359413,1.410006 2.303149,0.119017 4.349843,-1.249026 5.974273,-2.893151 l 1.213989,-0.645686 c -1.170469,1.948086 -3.0204,3.468949 -5.013815,4.688307 -0.555593,0.339853 -1.080495,0.496008 -1.709342,0.890528 -0.779528,0.489053 -0.904443,1.222366 -1.68158,1.222366 z"
       id="path10"
       inkscape:path-effect="#path-effect10"
       inkscape:original-d="m 13.079609,9.8301374 c 1.396145,0 2.340082,-0.8954838 2.292212,-2.6418754 L 24.502,4.4667973 c -1.775805,3.1131049 -3.690516,6.0817467 -7.277819,7.3108937 -0.595449,1.201616 -0.871561,1.914892 -2.43295,2.377655 -0.707444,0.209672 -0.834229,1.385469 -0.359413,1.410006 2.303149,0.119017 4.349843,-1.249026 5.974273,-2.893151 l 1.213989,-0.645686 c -1.170469,1.948086 -3.0204,3.468949 -5.013815,4.688307 -0.555593,0.339853 -1.080495,0.496008 -1.709342,0.890528 -0.779528,0.489053 -0.904443,1.222366 -1.68158,1.222366 z"
       sodipodi:nodetypes="ccccssccsscc"
       transform="matrix(1.1174352,0,0,1.1174352,-1.536006,0.2141121)" /><path
       id="path11"
       d="m 13.079609,9.8301374 c 1.396145,0 2.340082,-0.8954838 2.292212,-2.6418754 L 24.502,4.4667973 c -1.775805,3.1131049 -3.690516,6.0817467 -7.277819,7.3108937 -0.595449,1.201616 -0.871561,1.914892 -2.43295,2.377655 -0.707444,0.209672 -0.834229,1.385469 -0.359413,1.410006 2.303149,0.119017 4.349843,-1.249026 5.974273,-2.893151 l 1.213989,-0.645686 c -1.170469,1.948086 -3.0204,3.468949 -5.013815,4.688307 -0.555593,0.339853 -1.080495,0.496008 -1.709342,0.890528 -0.779528,0.489053 -0.904443,1.222366 -1.68158,1.222366 z"
       style="fill:#ffffff;fill-opacity:1;stroke-width:0.264583;fill-rule:nonzero"
       transform="matrix(-1.1174352,0,0,1.1174352,27.994339,0.2141121)" /></g></svg>
