<?xml version="1.0" encoding="UTF-8" standalone="no"?>
<!-- Created with Inkscape (http://www.inkscape.org/) -->

<svg
   width="400"
   height="400"
   viewBox="0 0 105.83333 105.83333"
   version="1.1"
   id="svg1"
   xml:space="preserve"
   inkscape:version="1.4.2 (ebf0e940, 2025-05-08)"
   sodipodi:docname="mountain.svg"
   xmlns:inkscape="http://www.inkscape.org/namespaces/inkscape"
   xmlns:sodipodi="http://sodipodi.sourceforge.net/DTD/sodipodi-0.dtd"
   xmlns="http://www.w3.org/2000/svg"
   xmlns:svg="http://www.w3.org/2000/svg"><sodipodi:namedview
     id="namedview1"
     pagecolor="#ff0000"
     bordercolor="#eeeeee"
     borderopacity="1"
     inkscape:showpageshadow="0"
     inkscape:pageopacity="0"
     inkscape:pagecheckerboard="0"
     inkscape:deskcolor="#505050"
     inkscape:document-units="mm"
     inkscape:zoom="0.73022932"
     inkscape:cx="304.69881"
     inkscape:cy="257.45337"
     inkscape:window-width="1584"
     inkscape:window-height="907"
     inkscape:window-x="1125"
     inkscape:window-y="25"
     inkscape:window-maximized="0"
     inkscape:current-layer="layer1" /><defs
     id="defs1"><inkscape:path-effect
       effect="mirror_symmetry"
       start_point="13.213449,-0.19161031"
       end_point="13.213449,23.486124"
       center_point="13.213449,11.647257"
       id="path-effect10"
       is_visible="true"
       lpeversion="1.2"
       lpesatellites="#path11"
       mode="vertical"
       discard_orig_path="false"
       fuse_paths="false"
       oposite_fuse="false"
       split_items="true"
       split_open="false"
       link_styles="false" /></defs><g
     inkscape:label="Layer 1"
     inkscape:groupmode="layer"
     id="layer1"><path
       id="path15"
       style="fill:#ffffff;fill-opacity:1;fill-rule:nonzero;stroke-width:1.05833"
       d="M 49.820199,9.1697394 44.598811,23.845845 38.110318,54.684273 36.605501,46.316826 32.235741,58.601345 24.385058,38.91676 11.11455,85.475157 c 3.14163,1.142716 6.298996,2.138728 9.467123,2.991032 h 0.0021 l 2.197282,-6.815088 2.745052,7.273976 1.347721,-4.177524 2.129069,5.643068 c 7.3626,1.38874 14.738559,2.017412 22.030695,1.914096 l 3.044776,-9.436116 2.840136,7.526152 1.250572,-3.877796 1.990576,5.27306 c 2.841872,-0.28056 5.663208,-0.671872 8.460464,-1.174088 l 1.618508,-5.756752 1.223696,3.718636 1.542024,-5.48804 1.781804,5.415692 0.651124,-2.31924 0.903304,2.749188 c 6.312996,-1.620548 12.463248,-3.814256 18.378208,-6.556708 l -15.306593,-37.556363 -0.545704,1.661916 -2.722316,-9.68003 -2.879408,-7.065202 -5.860108,20.348111 z" /></g></svg>
