<?xml version="1.0" encoding="UTF-8" standalone="no"?>
<!-- Created with Inkscape (http://www.inkscape.org/) -->

<svg
   width="100"
   height="100"
   viewBox="0 0 26.458333 26.458333"
   version="1.1"
   id="svg1"
   xml:space="preserve"
   inkscape:version="1.4.2 (ebf0e940d0, 2025-05-08)"
   sodipodi:docname="shuffle.svg"
   xmlns:inkscape="http://www.inkscape.org/namespaces/inkscape"
   xmlns:sodipodi="http://sodipodi.sourceforge.net/DTD/sodipodi-0.dtd"
   xmlns="http://www.w3.org/2000/svg"
   xmlns:svg="http://www.w3.org/2000/svg"><sodipodi:namedview
     id="namedview1"
     pagecolor="#ff0000"
     bordercolor="#eeeeee"
     borderopacity="1"
     inkscape:showpageshadow="0"
     inkscape:pageopacity="0"
     inkscape:pagecheckerboard="0"
     inkscape:deskcolor="#505050"
     inkscape:document-units="mm"
     inkscape:zoom="9.57"
     inkscape:cx="50"
     inkscape:cy="50"
     inkscape:window-width="2048"
     inkscape:window-height="1208"
     inkscape:window-x="0"
     inkscape:window-y="0"
     inkscape:window-maximized="1"
     inkscape:current-layer="layer1" /><defs
     id="defs1" /><g
     inkscape:label="Layer 1"
     inkscape:groupmode="layer"
     id="layer1"><path
       id="rect1-28"
       style="fill:#ffffff;stroke-width:0.416883"
       d="m 17.029143,7.3330693 3.770515,7.0900507 c 0.662818,1.24627 0.268596,2.726711 -0.855233,3.615025 l 0.328464,0.617535 c 0.795762,1.496236 0.06751,3.329597 -1.617103,4.07109 l -0.348227,0.153738 c 0.736875,0.522761 1.777137,0.646283 2.695173,0.242204 l 2.430766,-1.070163 c 1.277854,-0.562459 1.820711,-1.928655 1.217087,-3.063625 L 19.125992,8.6016337 C 18.721257,7.8406319 17.907049,7.3826838 17.029143,7.3330693 Z" /><path
       id="rect1-20"
       style="fill:#ffffff;stroke-width:0.416883"
       d="m 12.104235,3.0996515 c -0.331133,0.018152 -0.665244,0.094719 -0.98471,0.2353332 l -0.881808,0.3882135 c 0.06987,0.09882 0.133954,0.2027321 0.19149,0.3109144 l 1.35406,2.5465781 c 1.232545,0.015574 2.404393,0.6331199 2.964349,1.68598 l 4.820643,9.0646163 c 0.718622,-0.675685 0.940272,-1.694924 0.472252,-2.574921 L 14.51592,4.3690757 C 14.063202,3.5178559 13.097636,3.0451963 12.104235,3.0996515 Z" /><path
       id="rect1-2"
       style="fill:#ffffff;stroke-width:0.416883"
       d="m 12.201683,7.3674245 3.752115,7.0556955 c 0.702592,1.321053 0.217664,2.90475 -1.06512,3.767905 l 0.246688,0.464655 c 0.795761,1.496236 0.06751,3.329597 -1.617103,4.07109 l -0.348226,0.153738 c 0.736875,0.522766 1.777135,0.646285 2.695172,0.242204 l 2.430766,-1.070163 c 1.277853,-0.562459 1.82071,-1.928655 1.217086,-3.063625 L 13.98847,8.6016337 C 13.631911,7.9312125 12.957445,7.4954576 12.201683,7.3674245 Z" /><path
       id="rect1-0"
       style="fill:#ffffff;stroke-width:0.416883"
       d="M 7.2583764,3.0996515 C 6.9272428,3.1178034 6.5931329,3.1943703 6.2736675,3.3349847 L 3.8422202,4.4051486 C 2.5643596,4.9676075 2.0221919,6.334665 2.6258151,7.4696311 L 2.8466079,7.8844695 5.0974685,6.8941818 C 6.7820815,6.1526891 8.8143316,6.770435 9.6100925,8.2666707 l 4.9112785,9.2346733 c 0.875513,-0.665297 1.182491,-1.787533 0.673282,-2.744978 L 9.6700619,4.3690757 C 9.2173441,3.5178559 8.2517774,3.0451963 7.2583764,3.0996515 Z" /><path
       id="rect1"
       style="fill:#ffffff;stroke-width:0.416883"
       d="M 3.0238065,8.6380023 5.4549781,7.5679071 C 6.7328388,7.0054501 8.2475359,7.4663569 8.8511591,8.6013162 L 14.375684,18.988846 c 0.603623,1.13497 0.06082,2.501489 -1.217035,3.063947 l -2.431172,1.070094 C 9.4496167,23.685346 7.9349201,23.224437 7.3312962,22.089478 L 1.8067708,11.701946 C 1.2031476,10.56698 1.7459459,9.200461 3.0238065,8.6380023 Z" /></g></svg>
