<?xml version="1.0" encoding="UTF-8" standalone="no"?>
<!-- Created with Inkscape (http://www.inkscape.org/) -->

<svg
   width="400"
   height="400"
   viewBox="0 0 105.83333 105.83333"
   version="1.1"
   id="svg1"
   xml:space="preserve"
   inkscape:version="1.4.2 (ebf0e940, 2025-05-08)"
   sodipodi:docname="shuffle.svg"
   xmlns:inkscape="http://www.inkscape.org/namespaces/inkscape"
   xmlns:sodipodi="http://sodipodi.sourceforge.net/DTD/sodipodi-0.dtd"
   xmlns="http://www.w3.org/2000/svg"
   xmlns:svg="http://www.w3.org/2000/svg"><sodipodi:namedview
     id="namedview1"
     pagecolor="#ff0000"
     bordercolor="#eeeeee"
     borderopacity="1"
     inkscape:showpageshadow="0"
     inkscape:pageopacity="0"
     inkscape:pagecheckerboard="0"
     inkscape:deskcolor="#505050"
     inkscape:document-units="mm"
     inkscape:zoom="1.0161445"
     inkscape:cx="240.61538"
     inkscape:cy="133.83923"
     inkscape:window-width="1232"
     inkscape:window-height="747"
     inkscape:window-x="1125"
     inkscape:window-y="25"
     inkscape:window-maximized="0"
     inkscape:current-layer="layer1" /><defs
     id="defs1" /><g
     inkscape:label="Layer 1"
     inkscape:groupmode="layer"
     id="layer1"><path
       id="rect1-28"
       style="fill:#ffffff;stroke-width:1.66753"
       d="m 68.118548,29.332949 15.08206,28.360203 c 2.651272,4.98508 1.074384,10.906844 -3.420932,14.4601 l 1.313856,2.47014 c 3.183048,5.984944 0.27004,13.318388 -6.468412,16.28436 l -1.392908,0.614952 c 2.9475,2.091044 7.108548,2.585132 10.780692,0.968816 l 9.723064,-4.280652 c 5.111416,-2.249836 7.282842,-7.71462 4.868348,-12.2545 L 76.505944,34.407206 c -1.61894,-3.044007 -4.875772,-4.875799 -8.387396,-5.074257 z" /><path
       id="rect1-20"
       style="fill:#ffffff;stroke-width:1.66753"
       d="m 48.418916,12.399278 c -1.324532,0.07261 -2.660976,0.378876 -3.93884,0.941333 l -3.527232,1.552854 c 0.27948,0.39528 0.535816,0.810928 0.76596,1.243657 l 5.41624,10.186313 c 4.93018,0.0623 9.617572,2.532479 11.857396,6.743919 L 78.275012,69.32582 C 81.1495,66.62308 82.0361,62.546124 80.16402,59.026136 L 58.065656,17.476975 c -1.810872,-3.40488 -5.673136,-5.295518 -9.64674,-5.077697 z" /><path
       id="rect1-2"
       style="fill:#ffffff;stroke-width:1.66753"
       d="m 48.808708,29.47037 15.00846,28.222782 c 2.810368,5.284212 0.870656,11.619 -4.26048,15.07162 l 0.986752,1.85862 c 3.183044,5.984944 0.27004,13.318388 -6.468412,16.28436 l -1.392904,0.614952 c 2.9475,2.091064 7.10854,2.58514 10.780688,0.968816 l 9.723064,-4.280652 c 5.111412,-2.249836 7.28284,-7.71462 4.868344,-12.2545 L 55.955856,34.407206 c -1.426236,-2.681684 -4.1241,-4.424704 -7.147148,-4.936836 z" /><path
       id="rect1-0"
       style="fill:#ffffff;stroke-width:1.66753"
       d="m 29.035481,12.399278 c -1.324534,0.07261 -2.660974,0.378875 -3.938835,0.941333 l -9.725789,4.280655 c -5.111443,2.249836 -7.280114,7.718066 -4.865621,12.25793 l 0.883171,1.659354 9.003443,-3.961151 c 6.738452,-2.965971 14.867452,-0.494987 18.050496,5.489955 L 58.08746,70.006048 c 3.502052,-2.661188 4.729964,-7.150132 2.693128,-10.979912 L 38.682224,17.476975 c -1.810872,-3.40488 -5.673138,-5.295518 -9.646743,-5.077697 z" /><path
       id="rect1"
       style="fill:#ffffff;stroke-width:1.66753"
       d="M 12.097202,34.552681 21.821888,30.2723 c 5.111443,-2.249828 11.170232,-0.406201 13.584724,4.133636 l 22.0981,41.55012 c 2.414492,4.53988 0.24328,10.005956 -4.86814,12.255788 l -9.724688,4.280376 c -5.111441,2.249836 -11.170228,0.4062 -13.584723,-4.133636 L 7.229059,46.808456 c -2.414493,-4.539864 -0.2433,-10.00594 4.868143,-12.255775 z" /></g></svg>
