<?xml version="1.0" encoding="UTF-8" standalone="no"?>
<!-- Created with Inkscape (http://www.inkscape.org/) -->

<svg
   width="1024"
   height="1024"
   viewBox="0 0 270.93333 270.93333"
   version="1.1"
   id="svg1"
   xml:space="preserve"
   inkscape:version="1.4.2 (ebf0e940, 2025-05-08)"
   sodipodi:docname="2_lines.svg"
   xmlns:inkscape="http://www.inkscape.org/namespaces/inkscape"
   xmlns:sodipodi="http://sodipodi.sourceforge.net/DTD/sodipodi-0.dtd"
   xmlns="http://www.w3.org/2000/svg"
   xmlns:svg="http://www.w3.org/2000/svg"><sodipodi:namedview
     id="namedview1"
     pagecolor="#505050"
     bordercolor="#ffffff"
     borderopacity="1"
     inkscape:showpageshadow="0"
     inkscape:pageopacity="0"
     inkscape:pagecheckerboard="1"
     inkscape:deskcolor="#d1d1d1"
     inkscape:document-units="mm"
     inkscape:zoom="1"
     inkscape:cx="499.5"
     inkscape:cy="700"
     inkscape:window-width="2560"
     inkscape:window-height="1387"
     inkscape:window-x="1792"
     inkscape:window-y="25"
     inkscape:window-maximized="1"
     inkscape:current-layer="layer2" /><defs
     id="defs1" /><g
     inkscape:groupmode="layer"
     id="layer2"
     inkscape:label="Lines"><path
       id="path6"
       style="baseline-shift:baseline;display:inline;overflow:visible;vector-effect:none;fill:#b08e6d;fill-opacity:1;stroke:none;stroke-width:1.78565;enable-background:accumulate;stop-color:#000000"
       d="m 156.25609,119.16533 14.52516,16.30886 -14.18373,16.39097 38.30742,28.78732 52.64895,-45.18568 -52.64895,-45.185665 z m 1.69788,0.17446 36.90299,-27.579424 50.92524,43.706484 -50.92524,43.70651 -36.57818,-27.489 14.03702,-16.22488 z m 4.75036,32.91944 24.85267,19.04946 7.34148,-7.46698 7.35901,7.31748 39.91856,-34.26575 H 175.539 Z m 0,-33.40019 12.83467,15.36948 h 66.63705 l -39.91856,-34.268511 -7.35901,7.316551 -7.34148,-7.466957 z m 1.65635,33.21934 11.72182,-14.03425 h 62.98294 l -36.75259,31.54544 -6.60511,-6.56727 7.22614,-7.35162 -8.25502,-8.16088 -7.98647,8.17104 7.39037,7.34885 -6.63372,6.74445 z m 0,-33.0348 23.08836,-17.69575 6.63004,6.74168 -7.38669,7.34794 7.98647,8.17472 8.25502,-8.16088 -7.22614,-7.35162 6.60511,-6.57097 36.74889,31.54544 H 176.0825 Z m 23.95299,36.6271 6.37903,-6.52576 6.61251,6.53592 -6.41687,6.52574 z m 0,-40.21939 6.57467,-6.53867 6.41687,6.52483 -6.61251,6.5396 z" /><path
       id="path10"
       style="baseline-shift:baseline;display:inline;overflow:visible;vector-effect:none;fill:#b08e6d;fill-opacity:1;stroke:none;stroke-width:1.78565;enable-background:accumulate;stop-color:#000000"
       d="M 114.67726,151.76802 100.1521,135.45916 114.33582,119.0682 76.028403,90.28086 23.37945,135.46656 76.028403,180.65222 Z M 112.97937,151.59357 76.076383,179.17299 25.151134,135.4665 76.076383,91.759984 112.65457,119.24899 98.617549,135.47388 Z M 108.22901,118.67412 83.376345,99.624657 76.034867,107.09163 68.675854,99.774151 28.757286,134.03991 h 66.637061 z m 0,33.4002 -12.834663,-15.36949 H 28.757286 l 39.918568,34.26852 7.359013,-7.31655 7.341478,7.46695 z m -1.65634,-33.21935 -11.721821,14.03425 H 31.867904 l 36.752595,-31.54545 6.605112,6.56728 -7.226143,7.35163 8.255016,8.16087 7.986472,-8.17103 -7.390369,-7.34887 6.633719,-6.74444 z m 0,33.0348 -23.088364,17.69575 -6.630041,-6.74167 7.386691,-7.34795 -7.986472,-8.17471 -8.255016,8.16087 7.226126,7.35163 -6.605113,6.57097 L 31.8716,137.85922 h 62.979231 z m -23.952993,-36.62709 -6.379032,6.52576 -6.612505,-6.53592 6.41687,-6.52575 z m 0,40.21938 -6.574667,6.53867 -6.41687,-6.52483 6.612505,-6.53959 z" /><path
       id="path2"
       style="baseline-shift:baseline;display:inline;overflow:visible;vector-effect:none;fill:#b08e6d;fill-opacity:1;stroke:none;stroke-width:1.78565;enable-background:accumulate;stop-color:#000000"
       d="m 151.76801,156.02703 -16.30886,14.52516 -16.39097,-14.18373 -28.787318,38.30742 45.185678,52.64895 45.18567,-52.64895 z m -0.17446,1.69788 27.57943,36.90299 -43.70649,50.92524 -43.706499,-50.92524 27.488999,-36.57818 16.22488,14.03702 z m -32.91944,4.75036 -19.049441,24.85267 7.466971,7.34148 -7.317483,7.35901 34.265743,39.91856 v -66.63705 z m 33.40019,0 -15.36948,12.83467 v 66.63705 l 34.26852,-39.91856 -7.31655,-7.35901 7.46695,-7.34148 z m -33.21933,1.65635 14.03424,11.72182 v 62.98293 l -31.54544,-36.75258 6.56728,-6.60511 7.35162,7.22614 8.16088,-8.25502 -8.17103,-7.98647 -7.34886,7.39037 -6.74444,-6.63372 z m 33.03479,0 17.69575,23.08836 -6.74168,6.63004 -7.34794,-7.38669 -8.17471,7.98647 8.16087,8.25502 7.35162,-7.22614 6.57098,6.60511 -31.54544,36.74889 v -62.97924 z m -36.62709,23.95299 6.52575,6.37903 -6.5359,6.61251 -6.52575,-6.41687 z m 40.21938,0 6.53867,6.57467 -6.52483,6.41687 -6.53959,-6.61251 z" /><path
       id="path8"
       style="baseline-shift:baseline;display:inline;overflow:visible;vector-effect:none;fill:#b08e6d;fill-opacity:1;stroke:none;stroke-width:1.78565;enable-background:accumulate;stop-color:#000000"
       d="m 119.16534,114.90632 16.30886,-14.52517 16.39096,14.18373 28.78731,-38.307428 -45.18566,-52.64894 -45.185666,52.64894 z m 0.17446,-1.6979 -27.579425,-36.902987 43.706485,-50.925237 43.70649,50.925237 -27.489,36.578177 -16.22487,-14.037011 z m 32.91944,-4.75036 19.04944,-24.852665 -7.46698,-7.341478 7.31748,-7.359014 -34.26573,-39.918555 v 66.637048 z m -33.40019,0 15.36948,-12.834664 V 28.986348 l -34.268512,39.918555 7.316552,7.359014 -7.466957,7.341478 z m 33.21932,-1.65635 -14.03423,-11.721811 V 32.096965 l 31.54544,36.752583 -6.56728,6.605113 -7.35163,-7.226144 -8.16088,8.255016 8.17104,7.986473 7.34885,-7.39037 6.74445,6.633719 z m -33.03477,0 -17.69576,-23.088355 6.74168,-6.63004 7.34794,7.386691 8.17472,-7.986473 -8.16088,-8.255016 -7.35162,7.226144 -6.57097,-6.605113 31.54543,-36.748886 v 62.979237 z m 36.62707,-23.952984 -6.52575,-6.379031 6.53591,-6.612506 6.52575,6.41687 z m -40.21937,0 -6.53867,-6.574667 6.52483,-6.41687 6.5396,6.612506 z" /><path
       style="baseline-shift:baseline;display:inline;overflow:visible;vector-effect:none;fill:#b08e6d;enable-background:accumulate;stop-color:#000000;stop-opacity:1;opacity:1"
       d="m -7.0117187,185.4375 v 12.29492 H 5.2832031 V 185.4375 Z m 1.0703125,1.07031 H 4.2109375 v 10.15235 H -5.9414062 Z"
       id="rect10"
       transform="matrix(0.71029061,-0.70390855,0.71029061,0.70390855,0,0)" /></g></svg>
